
<svg width="116px" height="106px" viewBox="0 0 116 106" version="1.1" xmlns="http://www.w3.org/2000/svg" xmlns:xlink="http://www.w3.org/1999/xlink">
    <g id="Page-1" stroke="none" stroke-width="1" fill="none" fill-rule="evenodd">
        <g id="vector61-1943-01" transform="translate(-364.000000, -281.000000)" fill="#0E3407">
            <path d="M405.358,386.422 C404.291,386.309 402.687,386.734 401.881,385.423 C397.353,378.061 389.13,375.24 383.95,368.57 C379.885,363.335 378.068,357.086 375.431,351.194 C374.146,348.323 372.642,346.443 369.224,346.254 C364.579,345.996 363.756,343.384 365.478,338.951 C368.711,330.626 376.008,326.196 381.109,319.683 C383.157,317.067 387.188,319.057 389.009,323.156 C392.272,330.503 395.647,337.799 398.736,345.229 C400.1,348.508 401.052,349.163 403.422,346.039 C413.816,332.346 425.123,319.698 437.864,308.292 C446.191,300.839 455.441,294.61 463.174,286.499 C466.352,283.165 469.393,280.963 473.833,281.434 C476.106,281.674 478.386,282.444 479.135,284.958 C480.015,287.909 477.455,288.331 475.722,289.449 C464.517,296.681 455.833,306.862 447.277,317.2 C434.419,332.736 425.534,350.923 416.54,369.046 C413.877,374.411 411.148,379.739 408.458,385.088 C407.825,386.347 406.934,386.943 405.358,386.422" id="Fill-24"></path>
        </g>
    </g>
</svg>