
<svg width="174px" height="53px" viewBox="0 0 174 53" version="1.1" xmlns="http://www.w3.org/2000/svg" xmlns:xlink="http://www.w3.org/1999/xlink">
    <g id="Page-1" stroke="none" stroke-width="1" fill="none" fill-rule="evenodd">
        <g id="vector61-1943-01" transform="translate(-127.000000, -1068.000000)" fill="#070C34">
            <path d="M152.235,1090.8 C147.569,1092.02 144.095,1093.91 140.685,1095.92 C137.842,1097.6 137.9,1099.2 140.938,1100.6 C142.143,1101.16 143.303,1101.83 144.481,1102.45 C145.788,1103.14 146.834,1102.97 146.975,1101.23 C147.291,1097.31 149.448,1094.39 152.235,1090.8 Z M216.531,1080.33 C214.771,1080.46 213.012,1080.66 211.249,1080.73 C195.856,1081.35 180.982,1084.51 166.862,1091.19 C162.285,1093.35 157.778,1095.79 154.997,1100.57 C152.774,1104.38 153.293,1105.89 157.217,1106.91 C161.958,1108.13 166.754,1108.58 171.669,1108.33 C191.982,1107.29 211.999,1103.48 232.149,1100.97 C248.628,1098.92 265.275,1097.65 281.398,1092.99 C282.863,1092.56 285.009,1092.77 285.355,1090.68 C285.729,1088.42 284.332,1086.69 282.438,1085.92 C276.292,1083.45 270.211,1080.64 263.428,1080.75 C261.534,1080.78 260.257,1081.15 260.778,1083.67 C261.024,1084.87 260.39,1085.91 259.297,1086.23 C257.706,1086.69 257.77,1085.02 257.511,1084.16 C256.53,1080.9 254.194,1080.52 251.533,1080.71 C248.32,1080.95 245.078,1081.66 241.906,1081.39 C233.453,1080.68 225.037,1079.43 216.531,1080.33 Z M180.633,1120.71 C173.975,1120.7 167.006,1121.26 161.061,1118.05 C153.243,1113.83 144.001,1113.21 137.104,1106.84 C133.395,1103.41 130.563,1099.27 127.889,1094.97 C126.228,1092.3 126.801,1090.64 129.609,1089.1 C141.656,1082.51 154.743,1079.32 167.743,1076.11 C179.767,1073.15 192.056,1071.4 204.218,1069.06 C209.458,1068.05 214.76,1067.76 219.996,1068.4 C236.343,1070.39 252.947,1069.54 269.122,1073.31 C277.311,1075.22 285.289,1077.92 292.92,1081.67 C294.933,1082.67 296.859,1083.84 298.298,1085.68 C301.736,1090.08 300.917,1092.42 296.639,1095.81 C283.572,1106.15 268.365,1109.03 252.809,1111.19 C232.993,1113.94 213.217,1117.02 193.407,1119.82 C189.186,1120.42 184.893,1120.43 180.633,1120.71 L180.633,1120.71 Z" id="Fill-17"></path>
        </g>
    </g>
</svg>