
<svg width="63px" height="81px" viewBox="0 0 63 81" version="1.1" xmlns="http://www.w3.org/2000/svg" xmlns:xlink="http://www.w3.org/1999/xlink">
    <g id="Page-1" stroke="none" stroke-width="1" fill="none" fill-rule="evenodd">
        <g id="vector61-1943-01" transform="translate(-244.000000, -545.000000)" fill="#550000">
            <path d="M302.785,552.228 C301.692,554.999 301.964,559.093 297.97,560.943 C295.73,561.981 295.061,564.785 293.59,566.708 C290.058,571.325 286.478,575.902 282.801,580.388 C281.026,582.553 280.479,584.026 282.647,586.682 C288.581,593.95 295.576,599.931 302.29,606.264 C303.17,607.094 304.154,607.812 304.965,608.711 C306.657,610.587 307.442,612.737 305.553,614.92 C303.592,617.185 301.946,615.838 300.318,614.16 C293.242,606.868 286.029,599.723 279.075,592.302 C276.969,590.053 275.687,589.861 273.895,592.432 C266.823,602.577 259.146,612.248 252.909,623.049 C251.651,625.227 249.568,626.809 247.517,624.589 C245.675,622.597 242.384,620.484 245.204,616.725 C252.908,606.457 260.527,596.114 268.403,585.997 C270.627,583.139 270.691,581.274 268.409,578.403 C262.32,570.742 257.407,562.155 252.324,553.726 C251.249,551.941 248.954,549.323 251.35,547.546 C253.604,545.874 256.359,547.627 257.875,549.864 C260.189,553.278 262.168,556.966 264.108,560.646 C266.646,565.458 270.071,569.552 273.132,573.946 C274.593,576.043 275.42,576.219 276.976,574.039 C283.174,565.35 291.007,557.919 294.817,547.404 C295.452,545.652 296.644,545.302 298.399,546.037 C300.901,547.084 303.002,548.265 302.785,552.228" id="Fill-49"></path>
        </g>
    </g>
</svg>