
<svg width="154px" height="17px" viewBox="0 0 154 17" version="1.1" xmlns="http://www.w3.org/2000/svg" xmlns:xlink="http://www.w3.org/1999/xlink">
    <g id="Page-1" stroke="none" stroke-width="1" fill="none" fill-rule="evenodd">
        <g id="vector61-1943-01" transform="translate(-1015.000000, -549.000000)" fill="#1A1919">
            <path d="M1085.94317,531.373037 C1087.55517,516.991037 1088.54717,502.412037 1093.36717,488.624037 C1093.76617,487.480037 1093.56017,486.079037 1094.01717,484.978037 C1094.65217,483.448037 1094.30617,480.671037 1096.84017,481.032037 C1099.40517,481.397037 1100.05317,483.470037 1099.28617,485.966037 C1097.75617,490.943037 1096.85417,496.043037 1096.33517,501.246037 C1095.39817,510.636037 1093.07517,519.841037 1093.00817,529.350037 C1093.00717,529.504037 1092.97217,529.664037 1092.92517,529.811037 C1089.37617,541.002037 1090.78417,552.731037 1090.05917,564.170037 C1088.75217,584.785037 1089.06117,605.489037 1092.13217,626.017037 C1092.40517,627.835037 1092.24417,629.749037 1092.11717,631.605037 C1092.04517,632.654037 1092.76417,634.371037 1090.74417,634.336134 C1089.30617,634.309037 1088.85617,633.326037 1088.56017,631.926037 C1087.11017,625.064037 1086.40517,618.103037 1085.88717,611.111037 C1085.26417,602.699037 1084.65917,594.285037 1084.04617,585.872037 C1083.91917,567.661037 1083.91517,549.444037 1085.94317,531.373037 Z" id="Fill-59" transform="translate(1091.794325, 557.668067) scale(1, -1) rotate(90.000000) translate(-1091.794325, -557.668067) "></path>
        </g>
    </g>
</svg>